/* XPM */
static char *cfc76cc71c194767a6f9eec96bb141d7[] = {
/* columns rows colors chars-per-pixel */
"32 32 5 1 ",
"  c black",
". c #060608",
"X c #71413B",
"o c #F9A31B",
"O c #BB7547",
/* pixels */
"                                ",
"                                ",
"                                ",
"                                ",
"              ....              ",
"              ....              ",
"        ....XXooooXX....        ",
"        ....XXooooXX....        ",
"      ..ooOO..oooo..OOoo..      ",
"      ..ooOO..oooo..OOoo..      ",
"      ..OOooooooooooooOO..      ",
"      ..OOooooooooooooOO..      ",
"      XX..oooo....oooo..XX      ",
"      XX..oooo....oooo..XX      ",
"    ..oooooo........oooooo..    ",
"    ..oooooo........oooooo..    ",
"    ..oooooo........oooooo..    ",
"    ..oooooo........oooooo..    ",
"      XX..oooo....oooo..XX      ",
"      XX..oooo....oooo..XX      ",
"      ..OOooooooooooooOO..      ",
"      ..OOooooooooooooOO..      ",
"      ..ooOO..oooo..OOoo..      ",
"      ..ooOO..oooo..OOoo..      ",
"        ....XXooooXX....        ",
"        ....XXooooXX....        ",
"              ....              ",
"              ....              ",
"                                ",
"                                ",
"                                ",
"                                "
};
