/* XPM */
static char *f14f45b4b4ab413abbb15f1a9fd33097[] = {
/* columns rows colors chars-per-pixel */
"32 32 20 1 ",
"  c #3C445A",
". c #454D64",
"X c #49516A",
"o c #58607C",
"O c #4F556B",
"+ c #535971",
"@ c #4D5267",
"# c #7D4F61",
"$ c #BD4A58",
"% c #F44651",
"& c #914D5E",
"* c #C44957",
"= c #5B6381",
"- c #565D78",
"; c #575F7B",
": c None",
"> c #394157",
", c black",
"< c #E64753",
"1 c #5B5165",
/* pixels */
" ..XX..XX..XX..XX..XX..XX..XX.. ",
".oOO++OO++OO++OOOO++OO++OO++OOo.",
".O@@@@@@@@@@@@@@@@@@@@@@@@@@@@O.",
"XO@@@######################@@@OX",
"X+@@$%%%%%%%%%%%%%%%%%%%%%%$@@+X",
".+@@%%%%%%%%%%%%%%%%%%%%%%%%@@+.",
".O@@%%%&################&%%%@@O.",
"XO@@%%*@@@@@@@@@@@@@@@@@@*%%@@OX",
"X+@@%%*@@@@@@@@@@@@@@@@@@*%%@@+X",
".+@@%%*@@=--=;+--+;=--=@@*%%@@+.",
".O@@%%*@@-:>>>>>>>>>>:-@@*%%@@O.",
"XO@@%%*@@->,,,,,,,,,,>-@@*%%@@OX",
"X+@@%%*@@=>,,,,,,,,,,>=@@*%%@@+X",
".+@@%%*@@;>,,,,,,,,,,>;@@*%%@@+.",
".O@@%%*@@+>,,,,,,,,,,>+@@*%%@@O.",
"XO@@%%*@@->,,,,,,,,,,>-@@*%%@@OX",
"XO@@%%*@@->,,,,,,,,,,>-@@*%%@@OX",
".O@@%%*@@+>,,,,,,,,,,>+@@*%%@@O.",
".+@@%%*@@;>,,,,,,,,,,>;@@*%%@@+.",
"X+@@%%*@@=>,,,,,,,,,,>=@@*%%@@+X",
"XO@@%%*@@->,,,,,,,,,,>-@@*%%@@OX",
".O@@%%*@@-:>>>>>>>>>>:-@@*%%@@O.",
".+@@%%*@@=--=;+--+;=--=@@*%%@@+.",
"X+@@%%*@@@@@@@@@@@@@@@@@@*%%@@+X",
"XO@@%%<1@@@@@@@@@@@@@@@@1<%%@@OX",
".O@@%%%%%%%%%%%%%%%%%%%%%%%%@@O.",
".+@@<%%%%%%%%%%%%%%%%%%%%%%<@@+.",
"X+@@1**********************1@@+X",
"XO@@@@@@@@@@@@@@@@@@@@@@@@@@@@OX",
".O@@@@@@@@@@@@@@@@@@@@@@@@@@@@O.",
".oOO++OO++OO++OOOO++OO++OO++OOo.",
" ..XX..XX..XX..XX..XX..XX..XX.. "
};
