/* XPM */
static char *_09db1ffaf5f4badf82663cdc6b4d17a7nbpfRshbllhv7g5[] = {
/* columns rows colors chars-per-pixel */
"32 32 13 1 ",
"  c #727B97",
". c #7B84A0",
"X c #828AAC",
"o c #D69F4F",
"O c #8D95B7",
"+ c #76809E",
"@ c #727C9A",
"# c #737D9B",
"$ c #8B93B5",
"% c #8F97B9",
"& c #7B85A3",
"* c #7983A1",
"= c #8089A8",
/* pixels */
" .............................. ",
"XoO+@@@@@@@#$%%%%%%$#@@@@@@@+OoX",
"XO&**************************&OX",
"X+****************************+X",
"X@****************************@X",
"X@****************************@X",
"X@****************************@X",
"X@****************************@X",
"X@****************************@X",
"X@****************************@X",
"=@****************************@=",
".#****************************#.",
".$****************************$.",
".%****************************%.",
".%****************************%.",
".%****************************%.",
".%****************************%.",
".%****************************%.",
".%****************************%.",
".$****************************$.",
".#****************************#.",
"=@****************************@=",
"X@****************************@X",
"X@****************************@X",
"X@****************************@X",
"X@****************************@X",
"X@****************************@X",
"X@****************************@X",
"X+****************************+X",
"XO&**************************&OX",
"XoO+@@@@@@@#$%%%%%%$#@@@@@@@+OoX",
" .............................. "
};
