/* XPM */
static char *ee52236f9a064558a25e992a7fc31382[] = {
/* columns rows colors chars-per-pixel */
"32 32 20 1 ",
"  c black",
". c #0C0A07",
"X c #4C342F",
"o c #553D39",
"O c #634A45",
"+ c #D2A394",
"@ c #E4B5A5",
"# c #291A18",
"$ c #B56A68",
"% c #3A2B28",
"& c #C0AC98",
"* c #6E7D61",
"= c #DBCBBC",
"- c #4C403D",
"; c #425059",
": c #57636B",
"> c #362623",
", c #554C3C",
"< c #0C0A07",
"1 c None",
/* pixels */
"                                ",
"              . ...             ",
"            ..X.XXX..           ",
"           .oOOXOOOoX..         ",
"            .OOOOOOOOXo.        ",
"           .oOOOOOOOOoo.        ",
"           .oOOOOOOOOoo.        ",
"           .OXXOOOOOOOo.        ",
"         ..XO+XOXOOOOoXX.       ",
"           .O++O+OOOOOX.        ",
"           .+.+@.++OXOoo.       ",
"         ..X+#@@#+++$Oo.        ",
"           .+@@@@+++ooo.        ",
"            .+@@@++ooo.         ",
"            .+@@@++ooo.         ",
"             .+++..oo.          ",
"            .%&&&%%*%.          ",
"            .%==&---%*.         ",
"            .%===%%-%*.         ",
"            .%&==%%-%*.         ",
"            .%=&=%%-%*.         ",
"            .%;;;%%@@*.         ",
"            .%;;;%%@@*.         ",
"            .;;;;;;;..          ",
"            .::::;;;.           ",
"            .::;:::;.           ",
"            .:;.;:::.           ",
"            .;;.;:::.           ",
"            .>>..,,,.           ",
"            .>>..,,,.           ",
"           .,,>. ...            ",
"        <<<<111<<111<<<<        "
};
