/* XPM */
static char *c04fa6da20894f1f84856ade86bdcc4d[] = {
/* columns rows colors chars-per-pixel */
"32 32 19 1 ",
"  c black",
". c #0C0A07",
"X c #4C342F",
"o c #634A45",
"O c #553D39",
"+ c #3A2B28",
"@ c #6E7D61",
"# c #4C403D",
"$ c #8F9D84",
"% c #5F7050",
"& c #E4B5A5",
"* c #D2A394",
"= c #425059",
"- c #57636B",
"; c #362623",
": c #6E6554",
"> c #554C3C",
", c #0C0A07",
"< c None",
/* pixels */
"                                ",
"             .  ...             ",
"            .X..XXX...          ",
"            .X..XXX...          ",
"           .XoXXoooXXX.         ",
"         ..oooooooooo.          ",
"        .XXooooooooXXo.         ",
"       .XXXooooooXXooo.         ",
"        .oooooooooooooX.        ",
"        .OOooXoXoooooX.         ",
"        .OOooXoXoooooX.         ",
"       .OOOoooXooooooO.         ",
"        .OOOoooooooooOO.        ",
"        .OOOOoooooooOO.         ",
"         ..OOooooOOOO.          ",
"           .OOOOOOOO.           ",
"         ..+@+@@@++@+.          ",
"         ..++@@@@@@++.          ",
"         ..++@@@@@@++.          ",
"        .++++@@@@@@+++.         ",
"        .##@+@$$$@@+@#.         ",
"       .###.@@%%%@@@.##.        ",
"       .&**.+@$$$@@+.*&.        ",
"        ....========...         ",
"           .=------=.           ",
"           .=------=.           ",
"           .=------=.           ",
"           .=-=.=--=.           ",
"           .==. .===.           ",
"           .;;. .:::.           ",
"           .>>.  ...            ",
"       ,,,,,<<,,,<<<,,,,        "
};
