/* XPM */
static char *be83427efd3749afd92b8ac5473e32eaAZ3YuchgeonBlwyS[] = {
/* columns rows colors chars-per-pixel */
"32 32 21 1 ",
"  c black",
". c #0C0A07",
"X c #4C342F",
"o c #553D39",
"O c #634A45",
"+ c black",
"@ c #D2A394",
"# c #E4B5A5",
"$ c #B56A68",
"% c #291A18",
"& c #3A2B28",
"* c #6E7D61",
"= c #C0AC98",
"- c #4C403D",
"; c #DBCBBC",
": c #425059",
"> c #57636B",
", c #554C3C",
"< c #362623",
"1 c #0C0A07",
"2 c None",
/* pixels */
"                                ",
"              ... ..            ",
"         .....XXX.XX.           ",
"        .XXXXoOOOXOO.           ",
"        .XXXXoOOOXOO.           ",
"         .ooOOOOOOOOO.          ",
"        .oOOOOOOOOOOO.          ",
"        .oOOOOOXXOOOO+          ",
"       .XXooOOO@XOXXOo+         ",
"        .XOOOO@@@O@@O+          ",
"        .oOOO@@.#@..@o+         ",
"       .XoOO$@@%##%%@+          ",
"       .XoOO$@@%##%%@+          ",
"        .oooo@@#####@+          ",
"         .oooo@###@@+           ",
"          ..oo.@@@..            ",
"          ..&*&===&&.           ",
"         .**&--;;=&&.           ",
"         .**&-&;;;&&.           ",
"         .**&-&=;;&&.           ",
"         .**&-&=;;&&.           ",
"         .**&-&;=;&&.           ",
"         .**##&:::&&.           ",
"          ...:::::::.           ",
"            .::>>>>>.           ",
"            .:>>:>>>.           ",
"            .>>:.:>>.           ",
"            .>>:.:::.           ",
"            .>>:.:::.           ",
"            .,,..<<<.           ",
"             .. .<,,,.          ",
"        1111122112222111        "
};
