/* XPM */
static char *f1b9cee2699946edfbdae08c2e1f4dd5SV12ya3JTDwFB58C[] = {
/* columns rows colors chars-per-pixel */
"32 32 9 1 ",
"  c #8F97B9",
". c #606B8A",
"X c #3D465B",
"o c #7983A1",
"O c #4A5462",
"+ c #ADBBD2",
"@ c #828CAB",
"# c #E6C243",
"$ c None",
/* pixels */
"          .          Xoooooooooo",
" ooooooooo.ooooooooooXo       oo",
" ooooooooo.ooooooooooX         o",
" ooooooooo.ooooooooooX.        o",
" ooooooooo.OooooooooOX.        o",
" ooooooooo.OOOOOOOOOOXo        o",
" ooooooooo.OooooooooOXo        o",
" ooooooooo.ooooooooooXo        o",
" ooooooooo.ooooooooooX.        o",
" ooooooooO.OooooooooOXo...... oo",
"...........O.........X..........",
"         +.        @+.X         ",
" oooooooo.. oooooooo@. ooooooo. ",
" oooooooo.. oooooooo . ooooooo. ",
" oooooooo.. oooooooo . ooooooo. ",
" oooooooo.. oooooooo . ooooooo. ",
" oooooooo.. oooooooo . ooooooo. ",
" oooooooo.. oooooooo . ooooooo. ",
" oooooooo.. oooooooo . ooooooo. ",
" ooooooo#..@#ooooooo . ooooooo. ",
" +        .+@        .X         ",
"OOOOOOOOOOOOOOOOOOOOO$XXXXXXXXXX",
" ........O. ........+X          ",
" ooooooo#.. #ooooooo X.. oooo.. ",
" oooooooo.. oooooooo X          ",
" oooooooo.. oooooooo X.. oooo.. ",
" oooooooo.. oooooooo X          ",
" oooooooo.. oooooooo X.. oooo.. ",
" oooooooo.. oooooooo X          ",
" oooooooo.. oooooooo X.. oooo.. ",
" oooooooo..+oooooooo X          ",
"          .          X          "
};
