/* XPM */
static char *c0a90e60d84f4f318b17139da8369e4b[] = {
/* columns rows colors chars-per-pixel */
"32 32 21 1 ",
"  c black",
". c #0C0A07",
"X c #4C342F",
"o c #634A45",
"O c #D2A394",
"+ c #E4B5A5",
"@ c #553D39",
"# c #B56A68",
"$ c #291A18",
"% c #3A2B28",
"& c #6E7D61",
"* c #C0AC98",
"= c #4C403D",
"- c #DBCBBC",
"; c #87947C",
": c #425059",
"> c #57636B",
", c #554C3C",
"< c #362623",
"1 c #0C0A07",
"2 c None",
/* pixels */
"                                ",
"             ..  ..             ",
"         ....XX..XX.            ",
"        .XXXXooXXooX.           ",
"         ..oooooooooo.          ",
"        .ooooooooooooX.         ",
"        .ooooXXoXooooXX.        ",
"       .XXXooOXoOooooo.         ",
"       .XXXooOXoOooooo.         ",
"        .XXoOOOoOOOooo.         ",
"        .oooO.+O+..OXoo.        ",
"       .@oo#O$+++$$O#@.         ",
"        .@@@O++++++O@@.         ",
"         ..@@O+++OO@@.          ",
"           .@.OOO..@.           ",
"           .@.OOO..@.           ",
"         ..%&%***%%&%.          ",
"         ..%&=--*==&%.          ",
"        .%%%;=---==;%%.         ",
"        .==%&=*--==&%=.         ",
"       .===.%=-*-==%.==.        ",
"       .+OO.%%:::%%%.O+.        ",
"        ....::::::::...         ",
"        ....::::::::...         ",
"           .:>>>>>>:.           ",
"           .:>>:>>>:.           ",
"           .:>:.:>>:.           ",
"           .::. .:::.           ",
"           .,,. .<<<.           ",
"            ..  .,,,.           ",
"       11111221112221111        ",
"       11111221112221111        "
};
